<svg id="Layer_1" data-name="Layer 1" xmlns="http://www.w3.org/2000/svg" viewBox="0 0 36 25.15"><defs><style>.cls-1{fill:#33CCFF;}</style></defs><path class="cls-1" d="M7.34,0H1A1,1,0,0,0,0,1V24.1a1,1,0,0,0,1,1H7.34a1.05,1.05,0,0,0,1-1V1A1.05,1.05,0,0,0,7.34,0Zm-1,6.29H2.1V4.19H6.29Z"/><path class="cls-1" d="M17.81,0H11.53a1,1,0,0,0-1,1V24.1a1,1,0,0,0,1,1h6.29a1.05,1.05,0,0,0,1-1V1A1.05,1.05,0,0,0,17.81,0Zm-1,6.29H12.57V4.19h4.19Z"/><path class="cls-1" d="M25.05,1.62,19.44,4.45A1.05,1.05,0,0,0,19,5.86L28.4,24.57a1.05,1.05,0,0,0,1.41.46l5.61-2.83a1.05,1.05,0,0,0,.47-1.41L26.46,2.09A1.05,1.05,0,0,0,25.05,1.62Z"/><path class="cls-1" d="M30.39,24.1a1,1,0,1,1-1-1A1,1,0,0,1,30.39,24.1Z"/></svg>