<?xml version="1.0" encoding="utf-8"?>
<!-- Generator: Adobe Illustrator 21.0.2, SVG Export Plug-In . SVG Version: 6.00 Build 0)  -->
<svg version="1.1" id="Layer_1" xmlns="http://www.w3.org/2000/svg" xmlns:xlink="http://www.w3.org/1999/xlink" x="0px" y="0px"
	 viewBox="0 0 23 22" style="enable-background:new 0 0 23 22;" xml:space="preserve">
<style type="text/css">
	.st0{fill:none;stroke:#006BC2;stroke-miterlimit:10;}
	.st1{fill:#006BC2;stroke:#006BC2;stroke-miterlimit:10;}
</style>
<g id="Bullet">
	<path class="st0" d="M20.4,0.5H2.6C1.7,0.5,1,1.2,1,2.1v17.8c0,0.9,0.7,1.6,1.6,1.6h17.8c0.9,0,1.6-0.7,1.6-1.6V2.1
		C22,1.2,21.3,0.5,20.4,0.5z M11.5,15.5c-2.5,0-4.4-2-4.4-4.4s2-4.4,4.4-4.4s4.4,2,4.4,4.4S14,15.5,11.5,15.5z"/>
	<path class="st1" d="M11.5,3.5C7.4,3.5,4,6.9,4,11s3.3,7.5,7.5,7.5S19,15.1,19,11S15.6,3.5,11.5,3.5z M11.5,15.5
		c-2.5,0-4.4-2-4.4-4.4s2-4.4,4.4-4.4s4.4,2,4.4,4.4S14,15.5,11.5,15.5z"/>
</g>
</svg>
