<?xml version="1.0" encoding="utf-8"?>
<!-- Generator: Adobe Illustrator 21.0.2, SVG Export Plug-In . SVG Version: 6.00 Build 0)  -->
<svg version="1.1" id="Layer_1" xmlns="http://www.w3.org/2000/svg" xmlns:xlink="http://www.w3.org/1999/xlink" x="0px" y="0px"
	 viewBox="0 0 23 22" style="enable-background:new 0 0 23 22;" xml:space="preserve">
<style type="text/css">
	.st0{fill:none;stroke:#006BC2;stroke-miterlimit:10;}
	.st1{fill:none;stroke:#C18B05;stroke-miterlimit:10;}
	.st2{fill:none;stroke:#059E63;stroke-miterlimit:10;}
</style>
<g id="Consultation">
	<path class="st0" d="M19.9,1.1H3.1c-0.8,0-1.5,0.7-1.5,1.5v16.8c0,0.8,0.7,1.5,1.5,1.5h16.8c0.8,0,1.5-0.7,1.5-1.5V2.6
		C21.5,1.7,20.8,1.1,19.9,1.1z M8.8,7c1.2,0,2.2,0.8,2.5,2c0.1,0.2,0.1,0.4,0.1,0.6c0,1.4-1.1,2.5-2.4,2.6H8.8
		c-1.4-0.1-2.6-1.3-2.5-2.8C6.4,8.2,7.5,7.1,8.8,7L8.8,7z M14.2,18.5c0,0.5-0.4,0.8-0.8,0.8H4.3c-0.5,0-0.8-0.4-0.8-0.8c0,0,0,0,0,0
		v-0.4c0-3,2.4-5.4,5.4-5.4h0.1c2.9,0,5.3,2.4,5.3,5.4V18.5z"/>
	<circle class="st1" cx="14.2" cy="5" r="2.6"/>
	<path class="st1" d="M19.7,13.8v0.4c0,0.5-0.4,0.8-0.8,0.8c0,0,0,0,0,0L13,14.8c-1.1-1.2-2.6-2-4.3-2c0-0.2,0.1-0.4,0.1-0.5
		c1.4,0,2.5-1.2,2.6-2.6c0-0.2,0-0.4-0.1-0.6c0.9-0.5,1.9-0.8,2.9-0.8C17.3,8.3,19.7,10.8,19.7,13.8z"/>
	<path class="st2" d="M11.4,9.6c0,1.4-1.1,2.5-2.4,2.6H8.8c-1.4,0-2.6-1.2-2.6-2.6C6.2,8.2,7.3,7,8.8,7c1.2,0,2.3,0.8,2.6,2
		C11.4,9.2,11.4,9.4,11.4,9.6z"/>
	<path class="st2" d="M14.2,18.1v0.4c0,0.5-0.4,0.8-0.8,0.8H4.3c-0.5,0-0.8-0.4-0.8-0.8v-0.4c0-3,2.4-5.4,5.4-5.4h0.1
		C11.8,12.8,14.2,15.2,14.2,18.1z"/>
</g>
</svg>
