<?xml version="1.0" encoding="utf-8"?>
<!-- Generator: Adobe Illustrator 21.0.2, SVG Export Plug-In . SVG Version: 6.00 Build 0)  -->
<svg version="1.1" id="Layer_1" xmlns="http://www.w3.org/2000/svg" xmlns:xlink="http://www.w3.org/1999/xlink" x="0px" y="0px"
	 viewBox="0 0 23 22" style="enable-background:new 0 0 23 22;" xml:space="preserve">
<style type="text/css">
	.st0{fill:none;stroke:#000000;stroke-width:0.4302;stroke-miterlimit:10;}
	.st1{fill:#006BC2;}
	.st2{fill:none;stroke:#006BC2;stroke-width:0.4302;stroke-miterlimit:10;}
</style>
<g id="Enter">
	<path class="st0" d="M22.3,2.4v16.8c0,0.5-0.4,0.9-0.9,0.9H1.6c-0.5,0-0.9-0.4-0.9-0.9v-9c0-0.5,0.4-0.9,0.9-0.9h9
		c0.5,0,0.9-0.4,0.9-0.9v-6c0-0.5,0.4-0.9,0.9-0.9h9C21.9,1.5,22.3,1.9,22.3,2.4C22.3,2.4,22.3,2.4,22.3,2.4z"/>
	<polygon class="st1" points="4,14.8 9.3,17.8 9.3,11.7 	"/>
	<line class="st2" x1="7.5" y1="14.8" x2="17.2" y2="14.8"/>
	<line class="st2" x1="17.2" y1="14.7" x2="17.2" y2="6.8"/>
</g>
</svg>
