<?xml version="1.0" encoding="utf-8"?>
<!-- Generator: Adobe Illustrator 21.0.2, SVG Export Plug-In . SVG Version: 6.00 Build 0)  -->
<svg version="1.1" id="Layer_1" xmlns="http://www.w3.org/2000/svg" xmlns:xlink="http://www.w3.org/1999/xlink" x="0px" y="0px"
	 viewBox="0 0 23 22" style="enable-background:new 0 0 23 22;" xml:space="preserve">
<style type="text/css">
	.st0{fill:none;stroke:#006BC2;stroke-width:0.4423;stroke-miterlimit:10;}
</style>
<g id="File_Icon">
	<path class="st0" d="M1.5,1.2h4C6,1.2,6.4,1.5,6.4,2v18.1c0,0.5-0.4,0.9-0.9,0.9h-4c-0.5,0-0.9-0.4-0.9-0.9V2
		C0.6,1.5,1,1.2,1.5,1.2z"/>
	<path class="st0" d="M7.2,1.2h4c0.5,0,0.9,0.4,0.9,0.9v18.1c0,0.5-0.4,0.9-0.9,0.9h-4c-0.5,0-0.9-0.4-0.9-0.9V2
		C6.4,1.5,6.8,1.2,7.2,1.2z"/>
	<path class="st0" d="M12.9,1.5l3.9-1c0.5-0.1,1,0.2,1.1,0.6L22.3,19c0.1,0.5-0.2,1-0.6,1.1l-3.9,1c-0.5,0.1-1-0.2-1.1-0.6L12.2,2.6
		C12.1,2.1,12.4,1.6,12.9,1.5z"/>
	<path class="st0" d="M2.4,4.2h2.2c0.5,0,0.9,0.4,0.9,0.9V6c0,0.5-0.4,0.9-0.9,0.9H2.4C1.9,6.9,1.5,6.5,1.5,6V5.1
		C1.5,4.6,1.9,4.2,2.4,4.2z"/>
	<path class="st0" d="M8.1,4.2h2.2c0.5,0,0.9,0.4,0.9,0.9V6c0,0.5-0.4,0.9-0.9,0.9H8.1C7.6,6.9,7.2,6.5,7.2,6V5.1
		C7.2,4.6,7.6,4.2,8.1,4.2z"/>
	<path class="st0" d="M14.5,4.1l2.1-0.5c0.5-0.1,1,0.2,1.1,0.6l0.2,0.9c0.1,0.5-0.2,1-0.6,1.1l-2.1,0.5c-0.5,0.1-1-0.2-1.1-0.6
		l-0.2-0.9C13.7,4.7,14,4.2,14.5,4.1z"/>
</g>
</svg>
