<?xml version="1.0" encoding="utf-8"?>
<!-- Generator: Adobe Illustrator 21.0.2, SVG Export Plug-In . SVG Version: 6.00 Build 0)  -->
<svg version="1.1" id="Layer_1" xmlns="http://www.w3.org/2000/svg" xmlns:xlink="http://www.w3.org/1999/xlink" x="0px" y="0px"
	 viewBox="0 0 23 22" style="enable-background:new 0 0 23 22;" xml:space="preserve">
<style type="text/css">
	.st0{fill:none;stroke:#059E63;stroke-width:0.7143;stroke-miterlimit:10;}
</style>
<g id="Consultation">
	<path class="st0" d="M12.2,10.9c0,0.6-0.4,1-1,1.1h-0.1c-0.6,0-1.1-0.5-1.1-1.1c0-0.6,0.5-1.1,1.1-1.1c0.5,0,0.9,0.3,1,0.8
		C12.2,10.7,12.2,10.8,12.2,10.9z"/>
	<path class="st0" d="M17.2,10.9c0,3.2-2.5,5.9-5.7,6.1c-0.1,0-0.3,0-0.4,0c-3.4,0-6.1-2.7-6.1-6c0-3.4,2.7-6.1,6-6.1
		c2.8,0,5.2,1.9,5.9,4.6C17.1,9.9,17.2,10.4,17.2,10.9z"/>
	<path class="st0" d="M20,10.9c0,4.7-3.6,8.6-8.4,8.9c-0.2,0-0.4,0-0.6,0c-4.9,0-9-4-9-8.9s4-9,8.9-9c4.1,0,7.7,2.8,8.7,6.8
		C19.9,9.4,20,10.2,20,10.9z"/>
	<line class="st0" x1="11.1" y1="5.9" x2="11.1" y2="0.5"/>
	<line class="st0" x1="21.5" y1="10.9" x2="15.8" y2="10.9"/>
	<line class="st0" x1="11.1" y1="21.2" x2="11.1" y2="15.9"/>
	<line class="st0" x1="6.5" y1="10.9" x2="0.8" y2="10.9"/>
</g>
</svg>
