<svg id="Layer_1" data-name="Layer 1" xmlns="http://www.w3.org/2000/svg" viewBox="0 0 34 29.99"><defs><style>.cls-1{fill:#444;}</style></defs><path class="cls-1" d="M22.66,22.51V21a8.44,8.44,0,0,0,3.78-7c0-4.7,0-8.5-5.67-8.5s-5.67,3.81-5.67,8.5a8.43,8.43,0,0,0,3.78,7v1.56C12.48,23,7.55,26.19,7.55,30H34C34,26.19,29.07,23,22.66,22.51Z"/><path class="cls-1" d="M6.12,17.95c-.4.15-.79.3-1.15.47h9c-.07-.16-.14-.31-.21-.47Z"/><path class="cls-1" d="M.8,21.73c-.1.15-.19.31-.27.47h11q.54-.25,1.12-.47H.8Z"/><path class="cls-1" d="M2.58,19.84c-.2.15-.39.31-.57.47h13.1c-.11-.15-.22-.31-.33-.47H2.58Z"/><path class="cls-1" d="M9.93,17a20.34,20.34,0,0,0-2.31.47h6c-.06-.16-.11-.31-.16-.47H9.93Z"/><path class="cls-1" d="M11.33,16.06v.47h2c0-.16-.08-.31-.11-.47Z"/><path class="cls-1" d="M11,15.11l.28.17v.3h1.79c0-.16,0-.32-.06-.47H11Z"/><path class="cls-1" d="M0,23.61c0,.16,0,.31,0,.47H8.5c.19-.16.39-.32.61-.47Z"/><path class="cls-1" d="M3.24,19.36H14.49l-.14-.24-.12-.23H4C3.75,19,3.49,19.2,3.24,19.36Z"/><path class="cls-1" d="M7.56,6.61c0,.16,0,.31,0,.47h6.31l0-.05c.07-.14.14-.28.21-.42Z"/><path class="cls-1" d="M.31,22.67a4.36,4.36,0,0,0-.16.47H9.81c.26-.16.52-.32.8-.47Z"/><path class="cls-1" d="M8.77,1.42h8.9a3.67,3.67,0,0,0-.44-.47h-8A3.8,3.8,0,0,0,8.77,1.42Z"/><path class="cls-1" d="M1.13,21.25H14.06q.73-.22,1.49-.39l-.07-.09H1.53C1.39,20.94,1.26,21.09,1.13,21.25Z"/><path class="cls-1" d="M9.92,14.17c.16.17.33.33.5.47H13c0-.16,0-.32,0-.47Z"/><path class="cls-1" d="M9.15,13.22c.11.16.23.32.36.47H13v-.47H9.15Z"/><path class="cls-1" d="M8,2.83c-.05.15-.09.31-.14.47H18.54c0-.16-.09-.32-.13-.47H8Z"/><path class="cls-1" d="M7.8,3.78c0,.15-.06.31-.08.47h8.74a6.78,6.78,0,0,1,1.09-.47Z"/><path class="cls-1" d="M7.59,5.67c0,.15,0,.31,0,.47h6.81a5.87,5.87,0,0,1,.35-.47Z"/><path class="cls-1" d="M7.66,4.72c0,.15,0,.31,0,.47h7.55a5.63,5.63,0,0,1,.55-.47Z"/><path class="cls-1" d="M11.08,0A4.89,4.89,0,0,0,9.87.47h6.7A4.89,4.89,0,0,0,15.36,0H11.08Z"/><path class="cls-1" d="M8.58,12.28c.09.16.17.32.27.47H13c0-.16,0-.32,0-.47Z"/><path class="cls-1" d="M8.45,1.89a4.52,4.52,0,0,0-.24.47h10A4.52,4.52,0,0,0,18,1.89Z"/><path class="cls-1" d="M7.84,10.39c0,.16.09.32.14.47H13c0-.16,0-.32,0-.47H7.84Z"/><path class="cls-1" d="M8.15,11.34c.06.16.13.32.2.47H13l0-.47H8.15Z"/><path class="cls-1" d="M7.55,7.56V8h6c0-.16.1-.32.16-.47H7.55Z"/><path class="cls-1" d="M7.56,8.5c0,.16,0,.32,0,.47h5.7c0-.16.06-.32.1-.47Z"/><path class="cls-1" d="M7.64,9.45c0,.16.05.32.08.47h5.41c0-.16,0-.32.06-.47Z"/></svg>