<?xml version="1.0" encoding="utf-8"?>
<!-- Generator: Adobe Illustrator 21.0.2, SVG Export Plug-In . SVG Version: 6.00 Build 0)  -->
<svg version="1.1" id="Layer_1" xmlns="http://www.w3.org/2000/svg" xmlns:xlink="http://www.w3.org/1999/xlink" x="0px" y="0px"
	 viewBox="0 0 49.5 50" style="enable-background:new 0 0 49.5 50;" xml:space="preserve">
<style type="text/css">
	.st0{fill:none;stroke:#006BC2;stroke-miterlimit:10;}
</style>
<g id="Layer_1_3_">
	<g id="History">
		<path class="st0" d="M4.5,13.5h41c1.1,0,2,0.9,2,2v24c0,1.1-0.9,2-2,2h-41c-1.1,0-2-0.9-2-2v-24C2.5,14.4,3.4,13.5,4.5,13.5z"/>
		<path class="st0" d="M15.5,6.5h19c0.6,0,1,0.4,1,1v6l0,0h-21l0,0v-6C14.5,6.9,14.9,6.5,15.5,6.5z"/>
		<line class="st0" x1="2.5" y1="22.5" x2="47.5" y2="22.5"/>
		<path class="st0" d="M20.5,22.5h9l0,0v6c0,0.6-0.4,1-1,1h-7c-0.6,0-1-0.4-1-1V22.5L20.5,22.5z"/>
	</g>
</g>
</svg>
