<svg id="Layer_1" data-name="Layer 1" xmlns="http://www.w3.org/2000/svg" viewBox="0 0 24 24"><defs><style>.cls-1{fill:#33CCFF;}</style></defs><path class="cls-1" d="M8.25,3.75A3.75,3.75,0,1,1,12,7.5,3.75,3.75,0,0,1,8.25,3.75ZM23.67,17.06l-6-7.5A1.49,1.49,0,0,0,16.5,9h-9a1.5,1.5,0,0,0-1.17.56l-6,7.5A1.5,1.5,0,0,0,1.5,19.5a1.43,1.43,0,0,0,.29,0L6,18.63V24H18V18.63l4.21.84a1.45,1.45,0,0,0,.29,0,1.5,1.5,0,0,0,1.17-2.44ZM16.5,15.27,15.29,15A1.5,1.5,0,1,0,14.7,18l1.79.36V19.5L12,21,7.5,19.5V18.33L9.29,18A1.5,1.5,0,1,0,8.7,15l-1.21.24V12L12,13.5,16.5,12v3.27Z" transform="translate(0)"/></svg>