<?xml version="1.0" encoding="utf-8"?>
<!-- Generator: Adobe Illustrator 21.0.2, SVG Export Plug-In . SVG Version: 6.00 Build 0)  -->
<svg version="1.1" id="Layer_1" xmlns="http://www.w3.org/2000/svg" xmlns:xlink="http://www.w3.org/1999/xlink" x="0px" y="0px"
	 viewBox="0 0 52 52" style="enable-background:new 0 0 52 52;" xml:space="preserve">
<style type="text/css">
	.st0{fill:none;stroke:#FFFFFF;stroke-miterlimit:10;}
	.st1{fill:#3A7EC4;stroke:#FFFFFF;stroke-linecap:round;stroke-miterlimit:10;}
	.st2{fill:none;stroke:#FFFFFF;stroke-linecap:round;stroke-miterlimit:10;}
</style>
<path class="st0" d="M27.7,4.4c0,1.4-1.1,2.5-2.5,2.5c0,0-0.1,0-0.1,0c-1-0.1-2.4-1-2.4-2.5c0-1.4,1.1-2.5,2.5-2.5
	C26.6,1.9,27.7,3,27.7,4.4z"/>
<path class="st1" d="M39.2,23v9.8c0,2.5,2,4.5,4.4,4.5h0c1.4,0,2.6,1.2,2.6,2.7v4.5c0,0.5-0.4,0.9-0.9,0.9H5.2
	c-0.5,0-0.9-0.4-0.9-0.9V40c0-1.5,1.2-2.7,2.6-2.7h0c1.9,0,3.5-1.6,3.5-3.6V23c-0.5-8.6,6.1-15.9,14-16.1C32.6,6.6,39.8,14,39.2,23z
	"/>
<path class="st2" d="M23.8,46.9c0,2-2.7,3.8-6,3.5c-2.6-0.3-5-1.5-5-3.5"/>
</svg>
