<?xml version="1.0" encoding="utf-8"?>
<!-- Generator: Adobe Illustrator 15.0.0, SVG Export Plug-In . SVG Version: 6.00 Build 0)  -->
<!DOCTYPE svg PUBLIC "-//W3C//DTD SVG 1.1//EN" "http://www.w3.org/Graphics/SVG/1.1/DTD/svg11.dtd">
<svg version="1.1" id="Layer_1" xmlns="http://www.w3.org/2000/svg" xmlns:xlink="http://www.w3.org/1999/xlink" x="0px" y="0px"
	 width="353px" height="112px" viewBox="5.925 31.06 353 112" enable-background="new 5.925 31.06 353 112" xml:space="preserve">
<g>
	<path fill="#FFFFFF" d="M344.813,110.812c0.858,0,2.063,0.143,2.063-1.02c0-0.859-0.717-0.977-1.463-0.977h-1.695v1.996
		L344.813,110.812L344.813,110.812z M343.72,114.269h-0.789v-6.168h2.656c1.607,0,2.15,0.602,2.15,1.705
		c0,1.193-0.832,1.635-1.908,1.721l1.836,2.742h-0.885l-1.74-2.742h-1.32V114.269L343.72,114.269z M349.476,111.214
		c0-2.627-1.895-4.52-4.52-4.52c-2.639,0-4.549,1.893-4.549,4.52c0,2.652,1.91,4.547,4.549,4.547
		C347.581,115.761,349.476,113.866,349.476,111.214 M339.546,111.214c0-2.957,2.426-5.383,5.41-5.383
		c2.971,0,5.381,2.426,5.381,5.383c0,2.982-2.41,5.406-5.381,5.406C341.972,116.62,339.546,114.196,339.546,111.214"/>
	<path fill="#FFFFFF" d="M247.419,90.029H231.55v-4.484c-0.008-2.938,0.842-5.344,2.453-6.953c1.408-1.406,3.352-2.178,5.469-2.17
		c5.105,0.014,7.932,3.264,7.947,9.143V90.029L247.419,90.029z M253.212,78.137c-3.389-3-8.117-4.59-13.678-4.59
		c-4.947,0.004-9.893,2.275-13.561,6.232c-3.916,4.225-6.089,10.02-6.101,16.314c-0.013,6.168,2.229,11.815,6.317,15.907
		c3.902,3.904,9.095,6.047,14.621,6.037c10.687-0.018,16.685-7.926,17.742-15.265l0.049-0.381h-0.383h-2.633h-0.291l-0.037,0.295
		c-0.754,5.95-5.814,12.271-13.717,12.253c-6.305-0.012-9.93-4.324-9.949-11.837c0.004,0,0.004-8.377,0.004-9.969h27.31h0.348
		l-0.01-0.344C259.032,86.416,257.005,81.49,253.212,78.137"/>
	<path fill="#FFFFFF" d="M166.54,108.421h-0.394h-2.43h-0.281l-0.047,0.273c-0.371,1.961-1.588,5.25-5.594,5.236
		c-3.109-0.008-4.691-2.182-4.705-6.457V77.646h9.887h0.336v-0.334l-0.006-2.252v-0.334h-0.332h-9.819v-12.54v-0.371l-0.371,0.039
		c-2.392,0.262-7.252,0.633-9.779,0.631h-0.332v0.334v11.906h-6.422h-0.332v0.33v2.273v0.334h0.332h6.465v25.957
		c0.008,9.562,4.101,14.415,12.172,14.415c9.258,0,11.207-7.062,11.584-9.223L166.54,108.421L166.54,108.421z"/>
	<path fill="#FFFFFF" d="M50.461,63.361l9.799,27.984H41.287L50.461,63.361L50.461,63.361z M129.338,113.952V87.557
		c0.004-4.09-1.322-7.578-3.824-10.086c-2.514-2.512-6.129-3.895-10.18-3.895c-5.555,0.008-9.98,2.297-13.25,6.664l-0.098-5.162
		l-0.004-0.322h-0.326H85.682H85.35v0.33v2.225v0.336h0.332h6.201v36.31H80.221l-23.93-68.731L56.213,45h-0.234H53.53h-0.236
		l-0.078,0.225l-23.408,68.731h-6.266H23.21v0.334v2.213v0.338h0.332h18.895h0.332v-0.338v-2.213v-0.334h-0.332h-8.68l6.508-19.624
		h20.93l6.605,19.624h-8.777h-0.334v0.334v2.213v0.338h0.334h49.26h0.334v-0.338v-2.217v-0.334h-0.334H102.1V93.799
		c0.018-12.02,6.43-16.387,10.732-16.383c4.17,0.004,6.283,2.703,6.291,8.031v28.505h-5.781h-0.33v0.334v2.217v0.338h0.33h22.301
		h0.332v-0.338v-2.217v-0.334h-0.332H129.338L129.338,113.952z"/>
	<path fill="#FFFFFF" d="M211.833,113.952V87.135c-0.008-6.254-3.812-13.562-14.512-13.559c-8.307,0.008-12.597,4.035-14.439,6.109
		V45.537v-0.336h-0.332h-15.985h-0.334v0.336v2.328v0.336h0.334h5.899v65.751h-6.404h-0.332v0.334v2.217v0.338h0.332h22.921h0.332
		v-0.338v-2.217v-0.334h-0.332h-6.1V93.541c0-7.061,2.41-10.949,4.435-12.973c1.963-1.959,4.465-3.039,7.047-3.039
		c5.721,0.008,6.936,4.705,6.949,8.646v27.776h-6.1h-0.33v0.334v2.217v0.338h0.33h22.922h0.33v-0.338v-2.217v-0.334h-0.33
		L211.833,113.952L211.833,113.952z"/>
	<path fill="#FFFFFF" d="M336.556,113.952h-6.404V85.518c-0.01-7.369-5.055-11.945-13.161-11.941
		c-7.724,0.008-11.888,3.871-13.81,6.43c-2.137-4.184-6.233-6.43-11.981-6.43c-5.482,0.008-10.371,2.078-13.636,5.623l-0.094-4.119
		l-0.006-0.324h-0.326H260.86h-0.334v0.332v2.223v0.336h0.334h6.604v36.306h-6.5h-0.338v0.334v2.217v0.338h0.338h22.375h0.338
		v-0.338v-2.217v-0.334h-0.338h-5.559v-20.06c0.195-5.832,0.465-9.594,2.551-12.473c1.793-2.395,4.66-3.883,7.469-3.883
		c3.473,0,4.691,2.619,4.822,2.914c0.879,1.66,0.879,4.531,0.879,7.309v26.192h-5.812h-0.334v0.334v2.217v0.338h0.334h22.006h0.334
		v-0.338v-2.217v-0.334h-0.334h-5.573v-20.06c0.19-5.832,0.463-9.59,2.547-12.473c1.795-2.395,4.658-3.883,7.476-3.883
		c3.473,0,4.688,2.619,4.817,2.914c0.877,1.66,0.877,4.531,0.877,7.309v26.192h-5.78h-0.334v0.334v2.217v0.338h0.334h22.5h0.336
		v-0.338v-2.217v-0.334H336.556L336.556,113.952z"/>
	<polygon fill="#FFFFFF" points="23.209,128.541 23.209,134.089 334.642,134.089 336.509,128.541 	"/>
</g>
</svg>
