<?xml version="1.0" encoding="utf-8"?>
<!-- Generator: Adobe Illustrator 21.0.2, SVG Export Plug-In . SVG Version: 6.00 Build 0)  -->
<svg version="1.1" id="Layer_1" xmlns="http://www.w3.org/2000/svg" xmlns:xlink="http://www.w3.org/1999/xlink" x="0px" y="0px"
	 viewBox="0 0 23 22" style="enable-background:new 0 0 23 22;" xml:space="preserve">
<style type="text/css">
	.st0{fill:none;stroke:#006BC2;stroke-width:0.8442;stroke-miterlimit:10;}
	.st1{fill:none;stroke:#006BC2;stroke-width:0.4221;stroke-miterlimit:10;}
</style>
<g id="Calendar_-_small">
	<path class="st0" d="M2.6,3h16.5c0.4,0,0.8,0.4,0.8,0.8v15.3c0,0.4-0.4,0.8-0.8,0.8H2.6c-0.4,0-0.8-0.4-0.8-0.8V3.8
		C1.8,3.3,2.1,3,2.6,3z"/>
	<polygon class="st1" points="3,4.6 18.7,4.6 18.7,18.3 5.4,18.3 3,15.9 	"/>
	<polyline class="st1" points="3,15.9 5.4,15.9 5.4,18.3 	"/>
	<rect x="15.5" y="7" class="st1" width="1.6" height="1.6"/>
	<rect x="15.5" y="9.8" class="st1" width="1.6" height="1.6"/>
	<rect x="12.6" y="9.8" class="st1" width="1.6" height="1.6"/>
	<rect x="9.8" y="9.8" class="st1" width="1.6" height="1.6"/>
	<rect x="7" y="9.8" class="st1" width="1.6" height="1.6"/>
	<rect x="4.2" y="9.8" class="st1" width="1.6" height="1.6"/>
	<rect x="15.5" y="12.6" class="st1" width="1.6" height="1.6"/>
	<rect x="12.6" y="12.6" class="st1" width="1.6" height="1.6"/>
	<rect x="9.8" y="12.6" class="st1" width="1.6" height="1.6"/>
	<rect x="7" y="12.6" class="st1" width="1.6" height="1.6"/>
	<rect x="4.2" y="12.6" class="st1" width="1.6" height="1.6"/>
	<rect x="15.5" y="15.5" class="st1" width="1.6" height="1.6"/>
	<rect x="12.6" y="15.5" class="st1" width="1.6" height="1.6"/>
	<rect x="9.8" y="15.5" class="st1" width="1.6" height="1.6"/>
	<rect x="7" y="15.5" class="st1" width="1.6" height="1.6"/>
	<rect x="12.6" y="7" class="st1" width="1.6" height="1.6"/>
	<line class="st0" x1="4.3" y1="3" x2="4.3" y2="0.9"/>
	<line class="st0" x1="6.8" y1="3" x2="6.8" y2="0.9"/>
	<line class="st0" x1="9.3" y1="3" x2="9.3" y2="0.9"/>
	<line class="st0" x1="11.9" y1="3" x2="11.9" y2="0.9"/>
	<line class="st0" x1="14.4" y1="3" x2="14.4" y2="0.9"/>
	<line class="st0" x1="16.9" y1="3" x2="16.9" y2="0.9"/>
</g>
</svg>
