<?xml version="1.0" encoding="utf-8"?>
<!-- Generator: Adobe Illustrator 21.0.2, SVG Export Plug-In . SVG Version: 6.00 Build 0)  -->
<svg version="1.1" id="Layer_1" xmlns="http://www.w3.org/2000/svg" xmlns:xlink="http://www.w3.org/1999/xlink" x="0px" y="0px"
	 viewBox="0 0 49.5 50" style="enable-background:new 0 0 49.5 50;" xml:space="preserve">
<style type="text/css">
	.st0{fill:none;stroke:#006BC2;stroke-miterlimit:10;}
</style>
<g id="Layer_1_2_">
	<g id="Recent_Items_1_">
		<circle class="st0" cx="25" cy="11.5" r="10"/>
		<path class="st0" d="M17.5,23.5h15c7.2,0,13,5.8,13,13v10c0,1.1-0.9,2-2,2h-37c-1.1,0-2-0.9-2-2v-10C4.5,29.3,10.3,23.5,17.5,23.5
			z"/>
		<circle class="st0" cx="17" cy="35" r="2.5"/>
		<circle class="st0" cx="17" cy="35" r="0.5"/>
		<path class="st0" d="M36.5,42.2c1.3-4.2,0.6-8.2-1.7-9s-5.2,2.1-6.6,6.3"/>
		<ellipse transform="matrix(0.3057 -0.9521 0.9521 0.3057 -18.8437 55.6151)" class="st0" cx="28.7" cy="40.7" rx="1.5" ry="1.2"/>
		<ellipse transform="matrix(0.3057 -0.9521 0.9521 0.3057 -16.2029 63.5795)" class="st0" cx="35.5" cy="42.9" rx="1.5" ry="1.2"/>
		<path class="st0" d="M14.9,33.8c-2.2-4.4-2.2-8.2-0.4-9.3c1.2-0.6,2.6-1,4-1"/>
		<path class="st0" d="M34.8,33.8c2.2-4.4,2.2-8.2,0.4-9.3c-1.2-0.6-2.6-1-4-1"/>
	</g>
</g>
</svg>
