<?xml version="1.0" encoding="utf-8"?>
<!-- Generator: Adobe Illustrator 21.0.2, SVG Export Plug-In . SVG Version: 6.00 Build 0)  -->
<svg version="1.1" id="Layer_1" xmlns="http://www.w3.org/2000/svg" xmlns:xlink="http://www.w3.org/1999/xlink" x="0px" y="0px"
	 viewBox="0 0 200 197" style="enable-background:new 0 0 200 197;" xml:space="preserve">
<style type="text/css">
	.st0{fill:#662954;stroke:#FFFFFF;stroke-width:4;stroke-miterlimit:10;}
	.st1{fill:#E097CB;stroke:#FFFFFF;stroke-width:4;stroke-miterlimit:10;}
	.st2{fill:#86BF88;stroke:#FFFFFF;stroke-width:4;stroke-miterlimit:10;}
	.st3{fill:#CC52A8;stroke:#FFFFFF;stroke-width:4;stroke-miterlimit:10;}
	.st4{fill:none;}
	.st5{fill:#FFFFFF;}
	.st6{font-family:'Arial-BoldMT';}
	.st7{font-size:16px;}
</style>
<g>
	<g>
		<g>
			<g>
				<path class="st0" d="M96.5,95.1l-39.4,80.7C12.5,154.1-6,100.4,15.7,55.8C31,24.4,61.6,5.3,96.5,5.3V95.1z"/>
			</g>
		</g>
		<g>
			<g>
				<path class="st1" d="M96.5,95.1l21.7,87.1c-21.4,5.3-41.3,3.2-61.1-6.4L96.5,95.1z"/>
			</g>
		</g>
		<g>
			<g>
				<path class="st2" d="M96.5,95.1l82-36.5c20.2,45.3-0.2,98.4-45.5,118.6c-5,2.2-9.5,3.8-14.8,5.1L96.5,95.1z"/>
			</g>
		</g>
		<g>
			<g>
				<path class="st3" d="M96.5,95.1V5.3c36.7,0,67.1,19.7,82,53.3L96.5,95.1z"/>
			</g>
		</g>
	</g>
	<g>
		<g>
		</g>
		<g>
		</g>
		<g>
		</g>
		<g>
		</g>
	</g>
</g>
<rect x="117.8" y="35.4" class="st4" width="27.2" height="16.1"/>
<text transform="matrix(1 0 0 1 117.7681 46.8125)" class="st5 st6 st7">10</text>
<rect x="142.8" y="114.4" class="st4" width="27.2" height="16.1"/>
<text transform="matrix(1 0 0 1 142.7681 125.8125)" class="st5 st6 st7">15</text>
<rect x="83.8" y="157.4" class="st4" width="27.2" height="16.1"/>
<text transform="matrix(1 0 0 1 83.7681 168.8125)" class="st5 st6 st7">6</text>
<rect x="23.8" y="76.4" class="st4" width="27.2" height="16.1"/>
<text transform="matrix(1 0 0 1 23.7681 87.8125)" class="st5 st6 st7">23</text>
</svg>
