<svg xmlns="http://www.w3.org/2000/svg" viewBox="0 0 23 22.03"><defs><style>.cls-1,.cls-2{fill:none;stroke-miterlimit:10;}.cls-1{stroke:#006bc2;}.cls-2{stroke:#c18b05;}</style></defs><g id="Layer_2" data-name="Layer 2"><g id="History"><path class="cls-1" d="M6,4.76,4.48,2.93A10.87,10.87,0,0,1,11.31.53,11.35,11.35,0,0,1,22.5,12"/><path class="cls-1" d="M16.83,16.53l1.67,2.62a10.94,10.94,0,0,1-6.81,2.38A11.35,11.35,0,0,1,.5,10"/><polygon class="cls-2" points="6.01 4.76 2.07 5.46 1.14 5.62 2.84 0.98 4.48 2.93 6.01 4.76"/><polygon class="cls-2" points="21.71 16.24 19.49 20.66 18.5 19.15 16.78 16.53 21.15 16.27 21.71 16.24"/></g></g></svg>