<?xml version="1.0" encoding="utf-8"?>
<!-- Generator: Adobe Illustrator 21.0.2, SVG Export Plug-In . SVG Version: 6.00 Build 0)  -->
<svg version="1.1" id="Layer_1" xmlns="http://www.w3.org/2000/svg" xmlns:xlink="http://www.w3.org/1999/xlink" x="0px" y="0px"
	 viewBox="0 0 49.5 50" style="enable-background:new 0 0 49.5 50;" xml:space="preserve">
<style type="text/css">
	.st0{fill:none;stroke:#006BC2;stroke-miterlimit:10;}
</style>
<g id="Layer_1_1_">
	<g id="History">
		<path class="st0" d="M5.1,7.3h38.3c1,0,1.9,0.8,1.9,1.9v35.5c0,1-0.8,1.9-1.9,1.9H5.1c-1,0-1.9-0.8-1.9-1.9V9.1
			C3.2,8.1,4,7.3,5.1,7.3z"/>
		<ellipse class="st0" cx="9.8" cy="8.4" rx="0.9" ry="4.9"/>
		<ellipse class="st0" cx="14.4" cy="8.4" rx="0.9" ry="4.9"/>
		<ellipse class="st0" cx="19.1" cy="8.4" rx="0.9" ry="4.9"/>
		<ellipse class="st0" cx="23.8" cy="8.4" rx="0.9" ry="4.9"/>
		<ellipse class="st0" cx="28.4" cy="8.4" rx="0.9" ry="4.9"/>
		<ellipse class="st0" cx="33.1" cy="8.4" rx="0.9" ry="4.9"/>
		<ellipse class="st0" cx="37.8" cy="8.4" rx="0.9" ry="4.9"/>
		<polygon class="st0" points="6,11 42.4,11 42.4,42.8 11.6,42.8 6,37.2 		"/>
		<polyline class="st0" points="6,37.2 11.6,37.2 11.6,42.8 		"/>
		<rect x="35" y="16.6" class="st0" width="3.7" height="3.7"/>
		<rect x="35" y="23.1" class="st0" width="3.7" height="3.7"/>
		<rect x="28.4" y="23.1" class="st0" width="3.7" height="3.7"/>
		<rect x="21.9" y="23.1" class="st0" width="3.7" height="3.7"/>
		<rect x="15.4" y="23.1" class="st0" width="3.7" height="3.7"/>
		<rect x="8.8" y="23.1" class="st0" width="3.7" height="3.7"/>
		<rect x="35" y="29.7" class="st0" width="3.7" height="3.7"/>
		<rect x="28.4" y="29.7" class="st0" width="3.7" height="3.7"/>
		<rect x="21.9" y="29.7" class="st0" width="3.7" height="3.7"/>
		<rect x="15.4" y="29.7" class="st0" width="3.7" height="3.7"/>
		<rect x="8.8" y="29.7" class="st0" width="3.7" height="3.7"/>
		<rect x="35" y="36.2" class="st0" width="3.7" height="3.7"/>
		<rect x="28.4" y="36.2" class="st0" width="3.7" height="3.7"/>
		<rect x="21.9" y="36.2" class="st0" width="3.7" height="3.7"/>
		<rect x="15.4" y="36.2" class="st0" width="3.7" height="3.7"/>
		<rect x="28.4" y="16.6" class="st0" width="3.7" height="3.7"/>
	</g>
</g>
</svg>
