<?xml version="1.0" encoding="utf-8"?>
<!-- Generator: Adobe Illustrator 21.0.2, SVG Export Plug-In . SVG Version: 6.00 Build 0)  -->
<svg version="1.1" id="Layer_1" xmlns="http://www.w3.org/2000/svg" xmlns:xlink="http://www.w3.org/1999/xlink" x="0px" y="0px"
	 viewBox="0 0 23 22" style="enable-background:new 0 0 23 22;" xml:space="preserve">
<style type="text/css">
	.st0{fill:none;stroke:#006BC2;stroke-width:0.4351;stroke-miterlimit:10;}
</style>
<g id="Link">
	<path class="st0" d="M12.5,15l-5.7,5.7c-0.6,0.6-1.5,0.6-2,0l-3.4-3.4c-0.6-0.6-0.6-1.5,0-2l5.7-5.7c0.4-0.4,1-0.4,1.3,0l0.7,0.7
		l-5.4,5.4c-0.4,0.4-0.4,1,0,1.3l1.3,1.3c0.4,0.4,1,0.4,1.3,0l5.4-5.4l0.7,0.7C12.9,14.1,12.9,14.7,12.5,15z"/>
	<path class="st0" d="M20.9,6.7l-5.7,5.7c-0.4,0.4-1,0.4-1.3,0l-0.7-0.7l5.4-5.4c0.4-0.4,0.4-1,0-1.3l-1.3-1.3c-0.4-0.4-1-0.4-1.3,0
		L10.5,9L9.9,8.3C9.5,8,9.5,7.4,9.9,7l5.7-5.7c0.6-0.6,1.5-0.6,2,0l3.4,3.4C21.5,5.2,21.5,6.1,20.9,6.7z"/>
	<path class="st0" d="M16.1,6.2L6,16.3c-0.4,0.4-0.7,0.6-0.8,0.6c-0.1-0.1,0.2-0.4,0.6-0.8L15.8,6c0.4-0.4,0.7-0.6,0.8-0.6
		c0.1,0.1,0,0.1-0.1,0.3C16.4,5.9,16.2,6.1,16.1,6.2z"/>
</g>
</svg>
