<?xml version="1.0" encoding="utf-8"?>
<!-- Generator: Adobe Illustrator 21.0.2, SVG Export Plug-In . SVG Version: 6.00 Build 0)  -->
<svg version="1.1" id="Layer_1" xmlns="http://www.w3.org/2000/svg" xmlns:xlink="http://www.w3.org/1999/xlink" x="0px" y="0px"
	 viewBox="0 0 200 197" style="enable-background:new 0 0 200 197;" xml:space="preserve">
<style type="text/css">
	.st0{fill:#662954;stroke:#FFFFFF;stroke-width:4;stroke-linejoin:bevel;stroke-miterlimit:10;}
	.st1{fill:#E097CB;stroke:#FFFFFF;stroke-width:4;stroke-linejoin:bevel;stroke-miterlimit:10;}
	.st2{fill:#86BF88;stroke:#FFFFFF;stroke-width:4;stroke-linejoin:bevel;stroke-miterlimit:10;}
	.st3{fill:#CC52A8;stroke:#FFFFFF;stroke-width:4;stroke-linejoin:bevel;stroke-miterlimit:10;}
	.st4{fill:none;}
	.st5{fill:#FFFFFF;}
	.st6{font-family:'Arial-BoldMT';}
	.st7{font-size:16px;}
</style>
<g>
	<g>
		<g>
			<g>
				<path class="st0" d="M96.5,95.1l10.9,89.1c-49.2,6-94-29-100.1-78.2s29-94,78.2-100.1c3.3-0.4,7.6-0.7,10.9-0.7V95.1z"/>
			</g>
		</g>
		<g>
			<g>
				<path class="st1" d="M96.5,95.1l37.9,81.4c-9.3,4.3-16.9,6.5-27,7.7L96.5,95.1z"/>
			</g>
		</g>
		<g>
			<g>
				<path class="st2" d="M96.5,95.1l46.2-77c42.5,25.5,56.3,80.7,30.7,123.2c-9.7,16.1-22,27.2-39,35.1L96.5,95.1z"/>
			</g>
		</g>
		<g>
			<g>
				<path class="st3" d="M96.5,95.1V5.3c17.1,0,31.6,4,46.2,12.8L96.5,95.1z"/>
			</g>
		</g>
	</g>
	<g>
		<g>
		</g>
		<g>
		</g>
		<g>
		</g>
		<g>
		</g>
	</g>
</g>
<rect x="103.8" y="22.4" class="st4" width="27.2" height="16.1"/>
<text transform="matrix(1 0 0 1 103.7681 33.8125)" class="st5 st6 st7">10</text>
<rect x="151.8" y="92.4" class="st4" width="27.2" height="16.1"/>
<text transform="matrix(1 0 0 1 151.7681 103.8125)" class="st5 st6 st7">15</text>
<rect x="110.8" y="161.4" class="st4" width="27.2" height="16.1"/>
<text transform="matrix(1 0 0 1 110.7681 172.8125)" class="st5 st6 st7">3</text>
<rect x="23.8" y="76.4" class="st4" width="27.2" height="16.1"/>
<text transform="matrix(1 0 0 1 23.7681 87.8125)" class="st5 st6 st7">30</text>
</svg>
