<svg xmlns="http://www.w3.org/2000/svg" viewBox="0 0 21.4 21.4"><defs><style>.cls-1{fill:none;stroke:#006bc2;stroke-miterlimit:10;}</style></defs><g id="Layer_2" data-name="Layer 2"><g id="History"><path class="cls-1" d="M13.4,19l-1,1L1.35,9l1-1A1.49,1.49,0,0,1,4.5,8l.59.59,8.2-5.42L13.14,3a1.49,1.49,0,0,1,0-2.1,1.49,1.49,0,0,1,2.1,0l5.24,5.24a1.49,1.49,0,0,1,0,2.1,1.49,1.49,0,0,1-2.1,0l-.15-.15-5.42,8.2.59.59A1.49,1.49,0,0,1,13.4,19Z"/><line class="cls-1" x1="0.35" y1="21.05" x2="6.85" y2="14.55"/></g></g></svg>