<?xml version="1.0" encoding="utf-8"?>
<!-- Generator: Adobe Illustrator 21.0.2, SVG Export Plug-In . SVG Version: 6.00 Build 0)  -->
<svg version="1.1" id="Layer_1" xmlns="http://www.w3.org/2000/svg" xmlns:xlink="http://www.w3.org/1999/xlink" x="0px" y="0px"
	 viewBox="0 0 52 52" style="enable-background:new 0 0 52 52;" xml:space="preserve">
<style type="text/css">
	.st0{fill:#217ECA;stroke:#FFFFFF;stroke-miterlimit:10;}
</style>
<path class="st0" d="M36.8,29.1h-1.5c-0.1-0.8-0.3-1.5-0.6-2.2l1.3-0.7c1.1-0.6,1.5-2,0.8-3.1l-0.6-1.1c-0.6-1.1-2-1.5-3.1-0.8
	l-1.3,0.7c-0.5-0.6-1-1.1-1.6-1.6L31,19c0.6-1.1,0.3-2.5-0.8-3.1L29,15.2c-1.1-0.6-2.5-0.3-3.1,0.8l-0.7,1.3
	c-0.7-0.2-1.4-0.4-2.2-0.6v-1.5c0-1.3-1-2.3-2.3-2.3h-1.3c-1.3,0-2.3,1-2.3,2.3v1.5c-0.7,0.1-1.4,0.3-2.1,0.6l-0.7-1.2
	c-0.6-1.1-2-1.5-3.1-0.8l-1.1,0.6c-1.1,0.6-1.5,2-0.8,3.1l0.7,1.2c-0.6,0.5-1.1,1-1.6,1.6l-1.2-0.7c-1.1-0.6-2.5-0.3-3.1,0.8
	l-0.6,1.1c-0.6,1.1-0.3,2.5,0.8,3.1l1.1,0.7c-0.3,0.7-0.5,1.5-0.6,2.3H3.6c-1.4,0-2.5,1.1-2.5,2.5v1.1c0,1.3,1,2.3,2.3,2.3h1.4
	c0.1,0.8,0.3,1.5,0.6,2.2l-1,0.6c-1.2,0.7-1.6,2.2-0.9,3.4l0.5,0.9c0.6,1.1,2,1.5,3.1,0.8l1.2-0.7c0.5,0.6,1,1.1,1.6,1.6l-0.6,1
	C8.6,46,9,47.6,10.2,48.2l0.9,0.5c1.1,0.6,2.5,0.3,3.1-0.8l0.7-1.2c0.7,0.3,1.5,0.4,2.2,0.6v1.2c0,1.4,1.1,2.5,2.5,2.5h1.1
	c1.3,0,2.3-1,2.3-2.3v-1.4c0.8-0.1,1.5-0.3,2.3-0.6l0.7,1.2c0.6,1.1,2,1.5,3.1,0.8l0.9-0.5c1.2-0.7,1.6-2.2,0.9-3.4l-0.6-1.1
	c0.6-0.5,1.1-1,1.6-1.6l1.3,0.7c1.1,0.6,2.5,0.3,3.1-0.8l0.5-0.9c0.7-1.2,0.3-2.7-0.9-3.4l-1.1-0.7c0.2-0.7,0.4-1.4,0.6-2.2h1.5
	c1.3,0,2.3-1,2.3-2.3v-1.3C39.1,30.1,38.1,29.1,36.8,29.1z M30.1,34.4c0,0.2-0.1,0.4-0.2,0.6c-0.5,1.6-1.3,2.9-2.3,4.1
	c-0.1,0.1-0.3,0.3-0.4,0.4c-1.2,1.1-2.6,1.9-4.2,2.4c-0.2,0.1-0.3,0.1-0.5,0.1c-0.8,0.2-1.6,0.3-2.5,0.3c-0.8,0-1.6-0.1-2.4-0.3
	c-0.2,0-0.4-0.1-0.5-0.1c-1.6-0.5-3-1.3-4.1-2.4c-0.1-0.1-0.3-0.3-0.4-0.4c-1.1-1.2-1.9-2.6-2.4-4.1c-0.1-0.2-0.1-0.3-0.1-0.5
	c-0.2-0.8-0.3-1.6-0.3-2.4c0-0.8,0.1-1.6,0.3-2.4c0-0.2,0.1-0.3,0.1-0.5c0.5-1.6,1.3-3,2.4-4.2c0.1-0.1,0.2-0.3,0.4-0.4
	c1.2-1.1,2.6-1.9,4.1-2.4c0.2-0.1,0.4-0.1,0.6-0.2c0.7-0.2,1.5-0.3,2.3-0.3c0.8,0,1.6,0.1,2.4,0.3c0.2,0,0.4,0.1,0.5,0.1
	c1.6,0.5,3,1.3,4.1,2.4c0.1,0.1,0.3,0.3,0.4,0.4c1.1,1.2,1.9,2.6,2.4,4.1c0.1,0.2,0.1,0.3,0.1,0.5c0.2,0.8,0.3,1.6,0.3,2.4
	C30.3,32.8,30.2,33.6,30.1,34.4z"/>
<path class="st0" d="M50.4,14.4l-0.7-0.3c0.3-1.1,0.3-2.4,0.1-3.6c-0.2-1-0.5-2-1-2.8l0.6-0.5c0.5-0.5,0.6-1.3,0.1-1.9L49,4.7
	c-0.5-0.5-1.3-0.6-1.9-0.1l-0.6,0.6C45,3.9,43,3.2,41,3.2l-0.2-0.8c-0.1-0.7-0.8-1.2-1.5-1l-0.7,0.1c-0.7,0.1-1.2,0.8-1,1.5l0.2,0.8
	C36,4.4,34.5,5.6,33.5,7l-0.7-0.3c-0.7-0.3-1.4,0-1.7,0.7l-0.3,0.7c-0.3,0.7,0,1.4,0.7,1.7l0.7,0.3c-0.3,1.2-0.3,2.4-0.1,3.7
	c0.2,1,0.5,2,1,2.8L32.6,17c-0.6,0.5-0.7,1.4-0.2,2l0.4,0.5c0.5,0.5,1.3,0.6,1.9,0.1l0.6-0.5c1.6,1.2,3.5,2,5.6,2l0.1,0.7
	c0.1,0.8,0.9,1.3,1.7,1.1l0.6-0.1c0.7-0.1,1.2-0.8,1-1.5l-0.1-0.8c1.7-0.7,3.2-1.9,4.1-3.3l0.8,0.3c0.7,0.3,1.4,0,1.7-0.7l0.2-0.6
	C51.4,15.5,51.1,14.7,50.4,14.4z M46.8,12.8c-0.1,1.2-0.6,2.2-1.3,3.1c-0.5,0.6-1.1,1.1-1.8,1.5c-0.5,0.3-1,0.4-1.6,0.6
	C41.5,18,40.9,18,40.3,18c-0.9-0.1-1.8-0.4-2.6-0.9c-0.9-0.6-1.7-1.5-2.2-2.6c-0.2-0.4-0.3-0.9-0.4-1.3C35,12.6,35,12,35.1,11.4
	c0.1-1.1,0.6-2.2,1.4-3.1c0.5-0.6,1.1-1.1,1.8-1.4c0.5-0.3,1-0.4,1.6-0.6c0.6-0.1,1.1-0.1,1.7-0.1c0.9,0.1,1.8,0.4,2.6,0.9
	c0.9,0.6,1.7,1.5,2.2,2.6c0.2,0.4,0.3,0.9,0.4,1.3C46.9,11.6,46.9,12.2,46.8,12.8z"/>
</svg>
